<svg xmlns="http://www.w3.org/2000/svg" width="47.016" height="47.015" viewBox="0 0 47.016 47.015">
  <g id="Group_9930" data-name="Group 9930" transform="translate(0.001)">
    <path id="Subtraction_1" data-name="Subtraction 1" d="M34.4,45.07H3a3,3,0,0,1-3-3V3A3,3,0,0,1,3,0H34.4a3,3,0,0,1,3,3V13.752l4.743-4.283h2.141l.826,1.914-.826,1.992L37.4,20.042V42.07A3,3,0,0,1,34.4,45.07ZM5.954,8.653V41.513H31.063V26.8L21.63,35.971l-4.581,1.336,1.641-4.657L31.063,20.114V16.245l-7.5-7.592Z" transform="translate(0.958 0.986)" fill="#2e247b"/>
    <g id="Outline" transform="translate(-0.001)">
      <path id="Path_46767" data-name="Path 46767" d="M5.227,5.23a.809.809,0,0,0-.165.259.81.81,0,0,0,.165.854A.787.787,0,1,0,6.34,5.23.82.82,0,0,0,5.227,5.23Z" transform="translate(-2.649 -2.652)" fill="#9fa3d3"/>
      <path id="Path_46768" data-name="Path 46768" d="M8.486,5.064a.731.731,0,0,0-.259.165.8.8,0,0,0,0,1.113.784.784,0,0,0,1.34-.556.824.824,0,0,0-.227-.556A.8.8,0,0,0,8.486,5.064Z" transform="translate(-3.298 -2.65)" fill="#9fa3d3"/>
      <path id="Path_46769" data-name="Path 46769" d="M11.486,5.064a.809.809,0,0,0-.259.165.8.8,0,0,0,0,1.113.905.905,0,0,0,.259.165.784.784,0,0,0,.3.063.776.776,0,0,0,.784-.784.824.824,0,0,0-.227-.556A.813.813,0,0,0,11.486,5.064Z" transform="translate(-3.948 -2.651)" fill="#9fa3d3"/>
      <rect id="Rectangle_1870" data-name="Rectangle 1870" width="11.998" height="1.333" transform="translate(9.263 13.739)" fill="#9fa3d3"/>
      <rect id="Rectangle_1871" data-name="Rectangle 1871" width="11.998" height="2.666" transform="translate(9.263 17.738)" fill="#9fa3d3"/>
      <rect id="Rectangle_1872" data-name="Rectangle 1872" width="15.997" height="2.666" transform="translate(9.263 21.737)" fill="#9fa3d3"/>
      <rect id="Rectangle_1873" data-name="Rectangle 1873" width="10.665" height="1.333" transform="translate(9.263 27.07)" fill="#9fa3d3"/>
      <rect id="Rectangle_1874" data-name="Rectangle 1874" width="7.998" height="2.666" transform="translate(9.263 31.069)" fill="#9fa3d3"/>
      <rect id="Rectangle_1875" data-name="Rectangle 1875" width="6.665" height="1.333" transform="translate(9.263 37.734)" fill="#9fa3d3"/>
      <path id="Path_46770" data-name="Path 46770" d="M46.015,11.4a2.978,2.978,0,0,0-2.121.879L41.179,15V4.351A2.351,2.351,0,0,0,38.829,2H4.351A2.351,2.351,0,0,0,2,4.351V46.664a2.351,2.351,0,0,0,2.351,2.351H38.829a2.351,2.351,0,0,0,2.351-2.351V23.481l6.957-6.957A3,3,0,0,0,46.015,11.4ZM3.567,4.351a.784.784,0,0,1,.784-.784H38.829a.784.784,0,0,1,.784.784V6.7H3.567ZM39.612,46.664a.784.784,0,0,1-.784.784H4.351a.784.784,0,0,1-.784-.784V8.269H39.612v8.3l-4.7,4.7V18.914l-8.3-8.3H8.269V45.1H34.911V29.75l4.7-4.7ZM20.9,35.271l-2.121,6.364,6.363-2.121L27.4,37.261l5.944-5.944V43.53H9.836V12.187H25.508v7.836h7.836v2.81L23.157,33.019Zm2.252-.036,2.026,2.026-.882.882-3.04,1.013,1.013-3.04Zm3.918-21.94,5.161,5.161H27.075Zm-.784,22.859-2.026-2.026L42.746,15.645l2.026,2.026ZM47.028,15.417l-1.147,1.147-2.026-2.026L45,13.39a1.433,1.433,0,1,1,2.027,2.027Z" transform="translate(-2 -2)" fill="#9fa3d3"/>
    </g>
  </g>
</svg>
