<svg xmlns="http://www.w3.org/2000/svg" xmlns:xlink="http://www.w3.org/1999/xlink" width="48.672" height="47.151" viewBox="0 0 48.672 47.151">
  <defs>
    <clipPath id="clip-path">
      <path id="Path_457" data-name="Path 457" d="M0-1.089H48.672V-48.24H0Z" transform="translate(0 48.24)" fill="none"/>
    </clipPath>
  </defs>
  <g id="Group_9928" data-name="Group 9928" transform="translate(0.001)">
    <path id="Path_451" data-name="Path 451" d="M.675-19.97H4.394V-47.321H.675Z" transform="translate(-0.016 48.219)" fill="#29268a"/>
    <path id="Path_452" data-name="Path 452" d="M44.885-19.97H48.6V-47.32H44.885Z" transform="translate(-1.013 48.219)" fill="#29268a"/>
    <path id="Path_453" data-name="Path 453" d="M2.578-43.26H45.791v-4.509H2.578Z" transform="translate(-0.059 48.229)" fill="#29268a"/>
    <path id="Path_454" data-name="Path 454" d="M1.318-12.029h46.2v-8.2H1.318Z" transform="translate(-0.03 47.608)" fill="#29268a"/>
    <g id="Group_1070" data-name="Group 1070" transform="translate(14.99 36.015)">
      <path id="Path_455" data-name="Path 455" d="M-.088,0-1.183,7l-2.735.437V10.5H14.571V7.439L12.492,7.22,10.632,0Z" transform="translate(3.918)" fill="#29268a"/>
    </g>
    <g id="Group_1072" data-name="Group 1072" transform="translate(-0.001 0)" clip-path="url(#clip-path)">
      <g id="Group_1071" data-name="Group 1071" transform="translate(0)">
        <path id="Path_456" data-name="Path 456" d="M-1.071,0h-44.11a2.281,2.281,0,0,0-2.281,2.281V35.744a.76.76,0,0,0,.76.76h17.324l-1.216,6.085h-1.659a.761.761,0,0,0-.76.76v2.281h-1.521v1.521h22.815V45.631h-1.521V43.349a.76.76,0,0,0-.76-.76h-1.66L-16.875,36.5H.45a.76.76,0,0,0,.76-.76V2.281A2.281,2.281,0,0,0-1.071,0M-14.76,45.631H-31.491V44.11H-14.76Zm0-1.521-14.282-1.521,1.216-6.085h9.4l1.216,6.085ZM-.311,34.983H-45.941V28.138H-.311ZM-10.958,6.845h-6.084a.76.76,0,0,0-.76.76v6.844h1.521V8.366h4.563v3.042H-14.76v1.521h3.042v3.8H-14.76v1.522h3.042v3.8H-14.76v1.521h3.042v3.042h-4.563V20.534H-17.8v6.084h-3.043v-3.8c0-3.1,3.769-3.786,3.927-3.813a.766.766,0,0,0,.266-.1.761.761,0,0,0,.261-1.043L-23.234,6.454a.788.788,0,0,0-.205-.205.789.789,0,0,0-1.1.205l-6.844,11.408a.744.744,0,0,0-.1.263.761.761,0,0,0,.623.878c.16.027,3.929.71,3.929,3.813v3.8H-29.97V20.534h-1.522v6.084h-.76V12.929h.76v1.521h1.522V12.168a.774.774,0,0,0-.062-.3l-2.282-5.323a.758.758,0,0,0-.4-.4.76.76,0,0,0-1,.4l-2.281,5.323a.756.756,0,0,0-.062.3V26.617h-6.085V5.323H-4.113V26.617H-10.2V7.605a.76.76,0,0,0-.76-.76M-25.407,23.576h3.042v.76h-3.042Zm0,.76,3.042,2.281h-3.042v-.76h3.042Zm0-.76-3.1-3.8c-.365-2.418-2.435-3.727-4.092-4.286l4.908-8.178v6.38h1.521V9.591l4.908,8.178a5.669,5.669,0,0,0-4.092,4.286Zm-8.68-10.647,1.13-2.636,1.13,2.636Zm.369,15.21h-.76V12.929h.76Zm0-13.689M-.311,26.617H-2.592V4.563a.761.761,0,0,0-.76-.76H-42.9a.761.761,0,0,0-.76.76V26.617h-2.281V2.281a.761.761,0,0,1,.76-.76h44.11a.76.76,0,0,1,.76.76Zm-22.815,6.845a2.281,2.281,0,0,0,2.281-2.281A2.282,2.282,0,0,0-23.126,28.9a2.282,2.282,0,0,0-2.281,2.282,2.281,2.281,0,0,0,2.281,2.281m0-3.042a.76.76,0,0,1,.76.76.761.761,0,0,1-.76.76.761.761,0,0,1-.76-.76.76.76,0,0,1,.76-.76" transform="translate(47.462)" fill="#9fa3d3"/>
      </g>
    </g>
  </g>
</svg>
