<svg xmlns="http://www.w3.org/2000/svg" xmlns:xlink="http://www.w3.org/1999/xlink" width="47.091" height="47.091" viewBox="0 0 47.091 47.091">
  <defs>
    <clipPath id="clip-path">
      <path id="Path_461" data-name="Path 461" d="M0-1.629H47.091V-48.72H0Z" transform="translate(0 48.72)" fill="none"/>
    </clipPath>
  </defs>
  <g id="Development" transform="translate(0.001 0)">
    <g id="Group_1075" data-name="Group 1075" transform="translate(0.759 10.793)">
      <path id="Path_458" data-name="Path 458" d="M-1.234,0l.1,3.064,3.935.29v22.89l-35.53-.371L-32.4,3.354l4.046-.4V0h-6.232l-1.421,1.676-.22,28.859-1.311.322.656,3.864,2.624.751H5.975l2.076-1.287v-3l-1.639-.645V1.992L4.554,0Z" transform="translate(37.536)" fill="#29268a"/>
    </g>
    <g id="Group_1077" data-name="Group 1077" transform="translate(-0.001 0)" clip-path="url(#clip-path)">
      <g id="Group_1076" data-name="Group 1076" transform="translate(9.992 0.714)">
        <path id="Path_459" data-name="Path 459" d="M0-.218H26.765S28.949-6.774,22.94-6.5L2.727-6.509S-.824-7.244,0-.218" transform="translate(0.127 6.531)" fill="#29268a"/>
      </g>
      <path id="Path_460" data-name="Path 460" d="M24.33-9.478H22.76v1.57h1.57Zm21.976,1.57h-.785V-36.162A3.139,3.139,0,0,0,42.382-39.3H37.673v-6.279a3.139,3.139,0,0,0-3.139-3.139H12.558a3.139,3.139,0,0,0-3.139,3.139V-39.3H4.709A3.139,3.139,0,0,0,1.57-36.162V-7.908H.785A.785.785,0,0,0,0-7.123v2.355A3.139,3.139,0,0,0,3.139-1.629H43.951a3.139,3.139,0,0,0,3.139-3.139V-7.123a.785.785,0,0,0-.785-.785M10.988-45.581a1.57,1.57,0,0,1,1.57-1.57H34.533a1.57,1.57,0,0,1,1.57,1.57v3.139H10.988Zm0,4.709H36.1v22.76a1.57,1.57,0,0,1-1.57,1.57H12.558a1.57,1.57,0,0,1-1.57-1.57Zm1.57,25.9H34.533a3.139,3.139,0,0,0,3.139-3.139V-34.593h3.139v21.976H6.279V-34.593H9.418v16.482a3.139,3.139,0,0,0,3.139,3.139M3.139-36.162a1.57,1.57,0,0,1,1.57-1.57H9.418v1.57H5.494a.785.785,0,0,0-.785.785v23.545a.785.785,0,0,0,.785.785H41.6a.785.785,0,0,0,.785-.785V-35.378a.785.785,0,0,0-.785-.785H37.673v-1.57h4.709a1.57,1.57,0,0,1,1.57,1.57V-7.908H30.609a.785.785,0,0,0-.555.229l-1.34,1.341H18.376l-1.34-1.341a.785.785,0,0,0-.555-.229H3.139ZM45.521-4.769a1.57,1.57,0,0,1-1.57,1.57H3.139a1.57,1.57,0,0,1-1.57-1.57v-1.57H16.157L17.5-5a.786.786,0,0,0,.555.23H29.039A.786.786,0,0,0,29.594-5l1.34-1.34H45.521ZM33.748-23.6H13.342v1.57H33.748Zm-1.57,3.139H13.342v1.57H32.179ZM18.051-25.175h15.7v-1.57h-15.7ZM12.558-44.011h1.57v-1.57h-1.57Zm3.139,0h1.57v-1.57H15.7Zm3.139,0h1.57v-1.57h-1.57ZM16.482-26.744h-1.57v1.57h1.57ZM16.8-33.18l3.139,2.355.941-1.256-2.3-1.727,2.3-1.726-.941-1.256L16.8-34.435a.784.784,0,0,0-.158,1.1.761.761,0,0,0,.158.158m10.36,2.355,3.139-2.355a.784.784,0,0,0,.157-1.1.752.752,0,0,0-.157-.157L27.155-36.79l-.941,1.256,2.3,1.726-2.3,1.727ZM25.845-37.44l-1.458-.583-3.14,7.847,1.458.583Z" transform="translate(0 48.72)" fill="#9fa3d3"/>
    </g>
  </g>
</svg>
