<svg xmlns="http://www.w3.org/2000/svg" xmlns:xlink="http://www.w3.org/1999/xlink" width="49.33" height="47.679" viewBox="0 0 49.33 47.679">
  <defs>
    <clipPath id="clip-path">
      <path id="Path_481" data-name="Path 481" d="M0-1.041H49.33V-48.72H0Z" transform="translate(0 48.72)" fill="none"/>
    </clipPath>
  </defs>
  <g id="Group_9934" data-name="Group 9934" transform="translate(0.001)">
    <g id="Group_1099" data-name="Group 1099" transform="translate(0.822 18.528)">
      <path id="Path_478" data-name="Path 478" d="M-.018,0H-5.48V28.163H42.492V0H36.235V8.873L19.9,20.3H16.646L.079,8.356Z" transform="translate(5.48)" fill="#2e247b"/>
    </g>
    <g id="Group_1102" data-name="Group 1102" transform="translate(-0.001 0)" clip-path="url(#clip-path)">
      <g id="Group_1100" data-name="Group 1100" transform="translate(20.47 8.472)">
        <path id="Path_479" data-name="Path 479" d="M-.179-.042A1.321,1.321,0,0,0-.4-1.618a1.391,1.391,0,0,0-1.63-.137,2.972,2.972,0,0,0-.5.416Q-5.1,1.147-7.667,3.64a3.026,3.026,0,0,0-.5.562,1.307,1.307,0,0,0,.009,1.417c.246.415.661.536,1.386.532a1.581,1.581,0,0,0,.8-.5Q-3.25,3.011-.52.373A1.973,1.973,0,0,0-.179-.042M-1.337,3.64A1.241,1.241,0,0,0-2.6,4.855,1.337,1.337,0,0,0-1.322,6.206a1.275,1.275,0,0,0,1.3-1.3A1.23,1.23,0,0,0-1.337,3.64M-7.1.555A1.246,1.246,0,0,0-5.78-.7,1.23,1.23,0,0,0-7.1-1.952,1.209,1.209,0,0,0-8.357-.64,1.191,1.191,0,0,0-7.1.555" transform="translate(8.375 1.956)" fill="#2e247b"/>
      </g>
      <g id="Group_1101" data-name="Group 1101" transform="translate(0 0)">
        <path id="Path_480" data-name="Path 480" d="M-.538-1.04H-22.712c-.332,0-.664.019-.992-.01A1.484,1.484,0,0,1-25.171-2.5c-.022-.247-.008-.5-.008-.746q0-13.119,0-26.237c0-.178,0-.356,0-.533.038-1.125.535-1.623,1.682-1.642.993-.017,1.986,0,2.979-.008,1.065-.012,1.083-.032,1.1-1.1.009-.782,0-1.565,0-2.347a5.724,5.724,0,0,1,.027-.745c.135-1.016.514-1.368,1.582-1.393,1.286-.029,2.579-.08,3.86,0,1.307.087,1.861-.829,2.555-1.578.206-.224.089-.542.013-.821-.149-.55-.305-1.1-.427-1.653a1.336,1.336,0,0,1,1.075-1.785c.561-.166,1.137-.289,1.708-.423a1.019,1.019,0,0,0,.87-.839,15.9,15.9,0,0,1,.48-1.638c.343-1.054.883-1.339,1.99-1.063.5.124,1,.249,1.487.4A1.175,1.175,0,0,0-2.823-47,12.056,12.056,0,0,1-1.654-48.13c.869-.767,1.4-.76,2.285.028.432.386.853.786,1.246,1.209a.992.992,0,0,0,1.089.29c.6-.164,1.2-.332,1.807-.479a1.312,1.312,0,0,1,1.781.936,9.66,9.66,0,0,1,.485,1.635,1.273,1.273,0,0,0,1.176,1.08c.467.1.937.191,1.395.321a1.371,1.371,0,0,1,1.134,1.847c-.123.555-.27,1.106-.435,1.651a1,1,0,0,0,.314,1.156,5.852,5.852,0,0,1,.617.61,1.737,1.737,0,0,0,1.463.59c1.214-.02,2.427,0,3.641,0a6.409,6.409,0,0,1,.879.047,1.144,1.144,0,0,1,1.006.86,4.948,4.948,0,0,1,.141,1.48c0,.853.007,1.707,0,2.56,0,.445.22.644.674.643q1.6-.006,3.2.006c1.386.011,1.878.459,1.879,1.772.007,8.995-.012,17.989.024,26.984a1.77,1.77,0,0,1-1.959,1.883C14.613-1.06,7.038-1.04-.538-1.04m-21.77-20.923a1.693,1.693,0,0,0-.127,1.038q-.01,7.893,0,15.786c0,1.566-.115,1.45,1.484,1.45q20.465,0,40.929,0c.257,0,.516-.014.772-.006.48.016.657-.23.638-.661,0-.106,0-.213,0-.32q0-8.319-.006-16.638c0-.225.1-.5-.2-.662a2.043,2.043,0,0,0-.852.467q-2.617,1.776-5.222,3.57-5.753,3.956-11.5,7.919A2.4,2.4,0,0,1,2.2-9.5c-1.839-.008-3.678,0-5.517-.007a1.916,1.916,0,0,1-1.129-.363c-.8-.563-1.618-1.113-2.427-1.669q-7.283-5-14.568-10c-.259-.177-.485-.446-.863-.422m37.936-6v-1.279c0-1.564.012-3.128-.009-4.691-.009-.651-.114-.75-.773-.767-.955-.024-1.913-.043-2.866,0a1.74,1.74,0,0,0-1.6,2.157c.124.482.254.963.361,1.449a1.4,1.4,0,0,1-1.125,1.865c-.562.164-1.134.3-1.707.423a.94.94,0,0,0-.8.763A17.8,17.8,0,0,1,6.552-26.2a1.314,1.314,0,0,1-1.79.926c-.571-.133-1.141-.271-1.7-.432a1.177,1.177,0,0,0-1.285.356,16.314,16.314,0,0,1-1.251,1.2,1.381,1.381,0,0,1-2.132-.026A12.339,12.339,0,0,1-2.7-25.232a1.323,1.323,0,0,0-1.561-.437c-.447.156-.922.238-1.385.349-1.178.286-1.693.01-2.056-1.12-.163-.508-.331-1.017-.443-1.536a.994.994,0,0,0-.86-.841,17.837,17.837,0,0,1-1.811-.457,1.341,1.341,0,0,1-1.006-1.739c.134-.589.308-1.169.466-1.753.067-.244.153-.518-.01-.723-.486-.615-.933-1.286-1.911-1.231-.769.043-1.543,0-2.315.013-1.016.017-1.079.065-1.082,1.017-.009,3.8.006,7.605-.016,11.407a1.436,1.436,0,0,0,.742,1.31q6.173,4.2,12.313,8.454a2.461,2.461,0,0,0,1.528.478c1.066-.024,2.132-.026,3.2,0a2.447,2.447,0,0,0,1.522-.5q6.142-4.247,12.314-8.453a1.424,1.424,0,0,0,.711-1.326c-.027-1.883-.01-3.767-.009-5.651M-4.792-44.113a.575.575,0,0,0-.74.456c-.113.375-.243.747-.334,1.126A1.508,1.508,0,0,1-7.1-41.316c-.428.1-.845.243-1.269.354a.471.471,0,0,0-.393.64c.106.413.2.831.344,1.233a1.387,1.387,0,0,1-.39,1.56c-.309.305-.607.621-.927.915-.345.317-.314.6.021.9.269.242.51.513.777.757a1.5,1.5,0,0,1,.48,1.824A9.781,9.781,0,0,0-8.773-32a.466.466,0,0,0,.386.642c.425.113.847.244,1.277.329a1.477,1.477,0,0,1,1.241,1.2c.1.414.261.814.368,1.227a.479.479,0,0,0,.655.378c.431-.091.872-.151,1.29-.281a1.666,1.666,0,0,1,1.8.482c.283.28.573.552.859.828a.489.489,0,0,0,.766-.011c.259-.252.527-.5.778-.756a1.717,1.717,0,0,1,1.881-.544c.384.119.79.167,1.18.268a.564.564,0,0,0,.792-.478c.093-.38.228-.751.321-1.13a1.468,1.468,0,0,1,1.251-1.19c.4-.074.782-.2,1.174-.289a.542.542,0,0,0,.455-.793c-.116-.373-.2-.759-.329-1.127a1.39,1.39,0,0,1,.379-1.563c.332-.334.664-.666,1-1a.453.453,0,0,0,0-.739c-.335-.33-.665-.664-1-1A1.366,1.366,0,0,1,7.372-39.1a8.874,8.874,0,0,0,.27-.922c.176-.708.129-.795-.554-1.009-.349-.111-.7-.215-1.059-.294a1.529,1.529,0,0,1-1.222-1.223c-.55-2.016-.422-1.708-2.26-1.268a1.763,1.763,0,0,1-1.8-.466c-.383-.375-.688-.987-1.224-1.012-.608-.027-.914.638-1.326,1.023a1.7,1.7,0,0,1-1.81.442c-.384-.121-.784-.191-1.176-.285m-14.74,20.462a2.454,2.454,0,0,0,.1-.454c.01-1.381.024-2.763.006-4.144-.01-.71-.062-.764-.857-.759-2.546.015-2.137-.289-2.146,1.959-.008,1.847-.308,1.354,1.392,2.557a3.321,3.321,0,0,0,1.507.841m38.088-.018a15.96,15.96,0,0,0,2.553-1.614.841.841,0,0,0,.275-.664c0-.815-.01-1.63,0-2.445,0-.46-.242-.624-.683-.618s-.88-.012-1.319,0c-.984.016-1,.023-1.011.941-.014,1.2-.009,2.409,0,3.614,0,.271-.073.571.185.789" transform="translate(25.183 48.7)" fill="#9fa3d3"/>
      </g>
    </g>
  </g>
</svg>
