<svg xmlns="http://www.w3.org/2000/svg" xmlns:xlink="http://www.w3.org/1999/xlink" width="47.679" height="47.679" viewBox="0 0 47.679 47.679">
  <defs>
    <clipPath id="clip-path">
      <path id="Path_473" data-name="Path 473" d="M0-1.041H47.679V-48.72H0Z" transform="translate(0 48.72)" fill="none"/>
    </clipPath>
  </defs>
  <g id="Group_9933" data-name="Group 9933" transform="translate(0.001)">
    <g id="Group_1092" data-name="Group 1092" transform="translate(-0.001 0)" clip-path="url(#clip-path)">
      <g id="Group_1089" data-name="Group 1089" transform="translate(1.319 1.347)">
        <path id="Path_470" data-name="Path 470" d="M-.514-.5A2.062,2.062,0,0,1-.666-.88c-.024-.181-.049-.363-.072-.544a1.706,1.706,0,0,1,.122-.694A1.534,1.534,0,0,1,1.169-4.112a10.457,10.457,0,0,1,4.01,2.48q.536.461,1.048.954a15.83,15.83,0,0,0,1.527-6.8,15.9,15.9,0,0,0-15.9-15.9,15.9,15.9,0,0,0-15.9,15.9,15.9,15.9,0,0,0,15.9,15.9A15.825,15.825,0,0,0-.153,6.265,1.554,1.554,0,0,1-.2,5.717c.159-1.706-.94-4.323-.31-6.216" transform="translate(24.049 23.38)" fill="#2e247b"/>
      </g>
      <g id="Group_1090" data-name="Group 1090" transform="translate(13.004 8.669)">
        <path id="Path_471" data-name="Path 471" d="M-.083-.095H3.709A1.083,1.083,0,0,0,4.794-1.178,1.084,1.084,0,0,0,3.709-2.262H1.543V-3.346A1.083,1.083,0,0,0,.459-4.429,1.083,1.083,0,0,0-.625-3.346v1.138a3.788,3.788,0,0,0-3.25,3.738A3.8,3.8,0,0,0-.083,5.323H1A1.626,1.626,0,0,1,1,8.574H-2.792A1.083,1.083,0,0,0-3.875,9.658a1.083,1.083,0,0,0,1.083,1.083h1.083v1.084A1.083,1.083,0,0,0-.625,12.909,1.083,1.083,0,0,0,.459,11.825V10.741H1A3.792,3.792,0,1,0,1,3.156H-.083A1.628,1.628,0,0,1-1.708,1.531,1.628,1.628,0,0,1-.083-.095" transform="translate(3.875 4.429)" fill="#9fa3d3"/>
      </g>
      <g id="Group_1091" data-name="Group 1091" transform="translate(0 0)">
        <path id="Path_472" data-name="Path 472" d="M-1.033-.81-15.208-13.568a17.1,17.1,0,0,0,1.53-7.026A17.357,17.357,0,0,0-31.016-37.931,17.357,17.357,0,0,0-48.354-20.593,17.357,17.357,0,0,0-31.016-3.256a17.34,17.34,0,0,0,6.5-1.29V8.664a1.084,1.084,0,0,0,.668,1,1.08,1.08,0,0,0,1.183-.236l5.579-5.595,2.871,5.342a1.084,1.084,0,0,0,.955.571,1.069,1.069,0,0,0,.484-.115l5.086-2.549a1.078,1.078,0,0,0,.55-.646,1.087,1.087,0,0,0-.085-.845L-9.708,1.079h7.95A1.083,1.083,0,0,0-.747.384,1.086,1.086,0,0,0-1.033-.81M-31.016-5.422A15.189,15.189,0,0,1-46.187-20.593a15.188,15.188,0,0,1,15.171-15.17,15.188,15.188,0,0,1,15.171,15.17,14.917,14.917,0,0,1-1.059,5.5l-1.768-1.591a12.873,12.873,0,0,0,.66-3.908,13.017,13.017,0,0,0-13-13,13.017,13.017,0,0,0-13,13,13.017,13.017,0,0,0,13,13,13.03,13.03,0,0,0,6.5-1.751v2.422a15.191,15.191,0,0,1-6.5,1.5M-22.7-20.314a1.085,1.085,0,0,0-1.167-.185,1.084,1.084,0,0,0-.643.989v7.546a10.834,10.834,0,0,1-6.5,2.207A10.85,10.85,0,0,1-41.853-20.593,10.849,10.849,0,0,1-31.016-31.429,10.849,10.849,0,0,1-20.18-20.593a10.612,10.612,0,0,1-.28,2.3ZM-11.54-1.088a1.082,1.082,0,0,0-.934.532A1.083,1.083,0,0,0-12.491.518l2.827,5.133L-12.8,7.224l-3.063-5.7a1.084,1.084,0,0,0-.8-.559,1.2,1.2,0,0,0-.157-.012,1.079,1.079,0,0,0-.766.319l-4.762,4.772V-17.077L-4.582-1.088Z" transform="translate(48.354 37.931)" fill="#9fa3d3"/>
      </g>
    </g>
  </g>
</svg>
