<svg xmlns="http://www.w3.org/2000/svg" width="52.661" height="47.656" viewBox="0 0 52.661 47.656">
  <g id="Group_9936" data-name="Group 9936" transform="translate(0.001)">
    <path id="Subtraction_2" data-name="Subtraction 2" d="M34.112,46.658H14.751L17.7,39.992H5a5.006,5.006,0,0,1-5-5V5A5.006,5.006,0,0,1,5,0H44.324a5.006,5.006,0,0,1,5,5V34.992a5.006,5.006,0,0,1-5,5H31.166l2.945,6.664ZM30.571,6.468,19.5,22.271V28.1l5.277-2.09L35.6,9.888l-.56-2.044-2-1.376Z" transform="translate(1.588 0.557)" fill="#2e247b"/>
    <g id="Group_2204" data-name="Group 2204" transform="translate(-0.001 0)">
      <g id="Group_2204-2" data-name="Group 2204" transform="translate(20.339 5.995)">
        <path id="Path_46773" data-name="Path 46773" d="M119.381,251.468l-1.557-1.082a3.032,3.032,0,0,0-4.215.759l-5.433,7.815c0,.005-.006.011-.009.017l-5.113,7.361a.847.847,0,0,0-.15.44l-.288,5.909a.842.842,0,0,0,1.172.814l5.436-2.33a.841.841,0,0,0,.36-.293l10.556-15.2A3.031,3.031,0,0,0,119.381,251.468Zm-15.017,19.956.148-3.045,2.654,1.844Zm4.318-2.2-3.766-2.618,4.643-6.686h0l3.4-4.888,3.766,2.618Zm10.077-14.5-1.075,1.546-3.766-2.618,1.075-1.546a1.347,1.347,0,0,1,1.87-.337l1.557,1.085A1.346,1.346,0,0,1,118.757,254.724Z" transform="translate(-102.614 -249.847)" fill="#9fa3d3"/>
      </g>
      <g id="Path_46757" data-name="Path 46757" transform="translate(39.924 9.835)">
        <path id="Path_46774" data-name="Path 46774" d="M148.637,258.061h-3.3a.842.842,0,0,0,0,1.683h3.3a.842.842,0,1,0,0-1.683Z" transform="translate(-144.5 -258.061)" fill="#9fa3d3"/>
      </g>
      <g id="Path_46758" data-name="Path 46758" transform="translate(7.757 9.835)">
        <path id="Path_46775" data-name="Path 46775" d="M94.8,258.061H76.546a.842.842,0,0,0,0,1.683H94.8a.842.842,0,1,0,0-1.683Z" transform="translate(-75.704 -258.061)" fill="#9fa3d3"/>
      </g>
      <g id="Path_46759" data-name="Path 46759" transform="translate(36.22 15.902)">
        <path id="Path_46776" data-name="Path 46776" d="M144.422,271.036h-7a.842.842,0,1,0,0,1.683h7a.842.842,0,1,0,0-1.683Z" transform="translate(-136.58 -271.036)" fill="#9fa3d3"/>
      </g>
      <g id="Path_46760" data-name="Path 46760" transform="translate(7.757 15.902)">
        <path id="Path_46777" data-name="Path 46777" d="M90.592,271.036H76.547a.842.842,0,1,0,0,1.683H90.592a.842.842,0,1,0,0-1.683Z" transform="translate(-75.705 -271.036)" fill="#9fa3d3"/>
      </g>
      <g id="Path_46761" data-name="Path 46761" transform="translate(32.012 21.968)">
        <path id="Path_46778" data-name="Path 46778" d="M139.629,284.01H128.421a.842.842,0,0,0,0,1.683h11.209a.842.842,0,0,0,0-1.683Z" transform="translate(-127.579 -284.01)" fill="#9fa3d3"/>
      </g>
      <g id="Path_46762" data-name="Path 46762" transform="translate(7.757 21.968)">
        <path id="Path_46779" data-name="Path 46779" d="M86.885,284.01H76.547a.842.842,0,0,0,0,1.683H86.885a.842.842,0,0,0,0-1.683Z" transform="translate(-75.705 -284.01)" fill="#9fa3d3"/>
      </g>
      <g id="Path_46763" data-name="Path 46763" transform="translate(26.624 28.035)">
        <path id="Path_46780" data-name="Path 46780" d="M133.492,296.984H116.9a.842.842,0,1,0,0,1.683h16.594a.842.842,0,0,0,0-1.683Z" transform="translate(-116.057 -296.984)" fill="#9fa3d3"/>
      </g>
      <g id="Path_46764" data-name="Path 46764" transform="translate(7.757 28.035)">
        <path id="Path_46781" data-name="Path 46781" d="M86.325,296.984H76.548a.842.842,0,0,0,0,1.683h9.776a.842.842,0,0,0,0-1.683Z" transform="translate(-75.706 -296.984)" fill="#9fa3d3"/>
      </g>
      <path id="Path_46782" data-name="Path 46782" d="M107.192,237.026H63.7a4.6,4.6,0,0,0-4.585,4.585v31.96a4.6,4.6,0,0,0,4.585,4.584H77.417l-1.671,3.909H72.009a1.309,1.309,0,1,0,0,2.618H98.881a1.309,1.309,0,0,0,0-2.618H95.146l-1.672-3.909h13.717a4.6,4.6,0,0,0,4.584-4.585v-31.96A4.6,4.6,0,0,0,107.192,237.026ZM91.259,279.632l1.039,2.432h-13.7l1.039-2.432Zm-29.525-9.756V241.611a1.972,1.972,0,0,1,1.966-1.967h43.491a1.971,1.971,0,0,1,1.966,1.966v28.265Zm47.424,2.619v1.075a1.971,1.971,0,0,1-1.966,1.967H63.7a1.972,1.972,0,0,1-1.967-1.966V272.5Z" transform="translate(-59.115 -237.026)" fill="#9fa3d3"/>
      <g id="Path_46766" data-name="Path 46766" transform="translate(25.488 35.948)">
        <path id="Path_46783" data-name="Path 46783" d="M115.169,314.283a.842.842,0,1,0-.234,1.167.87.87,0,0,0,.141-.118A.847.847,0,0,0,115.169,314.283Z" transform="translate(-113.627 -313.908)" fill="#9fa3d3"/>
      </g>
    </g>
  </g>
</svg>
