<svg xmlns="http://www.w3.org/2000/svg" xmlns:xlink="http://www.w3.org/1999/xlink" width="38.477" height="42.802" viewBox="0 0 38.477 42.802">
  <defs>
    <clipPath id="clip-path">
      <path id="Path_477" data-name="Path 477" d="M0-1.9H38.477V-44.7H0Z" transform="translate(0 44.697)" fill="none"/>
    </clipPath>
  </defs>
  <g id="Group_9935" data-name="Group 9935" transform="translate(0.001)">
    <g id="Group_1097" data-name="Group 1097" transform="translate(-0.001 0)" clip-path="url(#clip-path)">
      <g id="Group_1094" data-name="Group 1094" transform="translate(1.312 1.337)">
        <path id="Path_474" data-name="Path 474" d="M-1.336-1.263A5.607,5.607,0,0,0-5.3.381,5.822,5.822,0,0,0-6.935,3.537a5.982,5.982,0,0,0-.085,1,5.741,5.741,0,0,0,5.684,5.8,5.741,5.741,0,0,0,5.684-5.8,5.741,5.741,0,0,0-5.684-5.8M-5.3-19.85a5.612,5.612,0,0,0,3.965,1.645A5.741,5.741,0,0,0,4.349-24a5.741,5.741,0,0,0-5.684-5.8A5.741,5.741,0,0,0-7.02-24a5.979,5.979,0,0,0,.085.995A5.824,5.824,0,0,0-5.3-19.85m-16.852,5.69a5.6,5.6,0,0,0-3.669-1.37,5.741,5.741,0,0,0-5.684,5.8,5.741,5.741,0,0,0,5.684,5.8,5.6,5.6,0,0,0,3.67-1.37A5.812,5.812,0,0,0-20.3-8.341a5.9,5.9,0,0,0,.167-1.393,5.927,5.927,0,0,0-.167-1.4,5.811,5.811,0,0,0-1.849-3.031" transform="translate(31.506 29.798)" fill="#2e247b"/>
      </g>
      <g id="Group_1095" data-name="Group 1095" transform="translate(10.664 8.128)">
        <path id="Path_475" data-name="Path 475" d="M-.082-.526l15-8.722A5.815,5.815,0,0,1,13.287-12.4L-1.931-3.557A5.807,5.807,0,0,1-.082-.526m0,2.789A5.809,5.809,0,0,1-1.93,5.293L13.287,14.14a5.819,5.819,0,0,1,1.635-3.155Z" transform="translate(1.931 12.404)" fill="#2e247b"/>
      </g>
      <g id="Group_1096" data-name="Group 1096" transform="translate(0 0)">
        <path id="Path_476" data-name="Path 476" d="M-1.394-.632a7.073,7.073,0,0,0,7-7.134,7.073,7.073,0,0,0-7-7.133,7.073,7.073,0,0,0-7,7.133,7.073,7.073,0,0,0,7,7.134m0-11.593A4.421,4.421,0,0,1,2.979-7.766,4.421,4.421,0,0,1-1.394-3.307,4.421,4.421,0,0,1-5.766-7.766a4.421,4.421,0,0,1,4.372-4.459m0,25.86a7.073,7.073,0,0,0-7,7.134,7.073,7.073,0,0,0,7,7.133,7.073,7.073,0,0,0,7-7.133,7.073,7.073,0,0,0-7-7.134m0,11.593A4.421,4.421,0,0,1-5.766,20.77a4.421,4.421,0,0,1,4.372-4.46,4.421,4.421,0,0,1,4.372,4.46,4.421,4.421,0,0,1-4.372,4.459M-25.88-.632a7.073,7.073,0,0,0-7,7.133,7.073,7.073,0,0,0,7,7.134,7.073,7.073,0,0,0,7-7.134,7.073,7.073,0,0,0-7-7.133m0,11.592A4.421,4.421,0,0,1-30.252,6.5,4.42,4.42,0,0,1-25.88,2.044,4.42,4.42,0,0,1-21.507,6.5,4.421,4.421,0,0,1-25.88,10.96" transform="translate(32.876 14.899)" fill="#9fa3d3"/>
      </g>
    </g>
  </g>
</svg>
