<svg xmlns="http://www.w3.org/2000/svg" width="41.794" height="46.683" viewBox="0 0 41.794 46.683">
  <g id="Group_9931" data-name="Group 9931" transform="translate(0.001)">
    <path id="Subtraction_6" data-name="Subtraction 6" d="M31.709,31.994H3.845V26.662H0v-4.57H3.845V16.759H24.226a8.43,8.43,0,0,1-8.46-8.379,8.46,8.46,0,0,1,16.92,0,8.429,8.429,0,0,1-8.46,8.379h7.483v4.09l5.273-3.088a2,2,0,0,1,3.011,1.725v9.781a2.005,2.005,0,0,1-2,2,1.97,1.97,0,0,1-1.008-.277l-5.273-3.087v4.088ZM24.225,4.57A3.809,3.809,0,1,0,28.07,8.38,3.832,3.832,0,0,0,24.225,4.57ZM10,16.378a5.713,5.713,0,1,1,5.768-5.713A5.747,5.747,0,0,1,10,16.378ZM10,8a2.666,2.666,0,1,0,2.692,2.666A2.682,2.682,0,0,0,10,8Z" transform="translate(0.846 0)" fill="#332a7b"/>
    <path id="Union_23" data-name="Union 23" d="M24.1,45.829,18.614,35.31,13.131,45.829a1.035,1.035,0,0,1-1.836-.957l5.612-10.766H4.692a1.035,1.035,0,0,1-1.035-1.035v-4.7H1.035A1.035,1.035,0,0,1,0,27.335V23.263a1.035,1.035,0,0,1,1.035-1.035H3.657v-4.7a1.035,1.035,0,0,1,1.035-1.035h.946A7,7,0,1,1,15.993,7.1a9.281,9.281,0,1,1,14.86,9.388h1.684a1.035,1.035,0,0,1,1.035,1.035v3.089l6.7-3.6a1.036,1.036,0,0,1,1.526.912v14.75a1.034,1.034,0,0,1-1.526.911l-6.7-3.6v3.089a1.035,1.035,0,0,1-1.036,1.035H20.321l5.612,10.766a1.035,1.035,0,0,1-1.836.957ZM5.728,23.263v8.771H31.5V18.563H5.728Zm27.844-.3v4.663l6.15,3.311V19.657ZM2.071,26.3H3.657v-2H2.071ZM17.8,9.281A7.211,7.211,0,1,0,25.016,2.07,7.22,7.22,0,0,0,17.8,9.281Zm-2.237,7.211h3.611a9.365,9.365,0,0,1-2.069-2.355A7.031,7.031,0,0,1,15.567,16.493ZM5.674,11.564A4.928,4.928,0,1,0,10.6,6.636,4.934,4.934,0,0,0,5.674,11.564Zm4.743,17.461a.985.985,0,0,1-.984-.985V22.558a.985.985,0,0,1,.984-.985H21.676a.985.985,0,0,1,.984.985V28.04a.985.985,0,0,1-.984.985Zm.984-1.968h9.292V23.542H11.4Zm14.67-.052a1.036,1.036,0,1,1,1.035,1.035A1.035,1.035,0,0,1,26.071,27.005Zm0-3.412a1.036,1.036,0,1,1,1.035,1.035A1.035,1.035,0,0,1,26.071,23.593ZM7.456,11.564A3.145,3.145,0,1,1,10.6,14.709,3.15,3.15,0,0,1,7.456,11.564Zm1.864,0A1.282,1.282,0,1,0,10.6,10.282,1.283,1.283,0,0,0,9.32,11.564ZM20.5,9.281A4.517,4.517,0,1,1,25.016,13.8,4.522,4.522,0,0,1,20.5,9.281Zm2.071,0a2.446,2.446,0,1,0,2.446-2.446A2.448,2.448,0,0,0,22.57,9.281Z" transform="translate(-0.001 0.298)" fill="#9fa3d3"/>
  </g>
</svg>
